<?xml version="1.0" encoding="UTF-8" standalone="no"?>
<svg
   id="a"
   viewBox="0 0 97.237478 122.48168"
   version="1.1"
   sodipodi:docname="DTLab-Logo-RGB-V.svg"
   width="97.23748"
   height="122.48168"
   inkscape:export-filename="/home/bruno/dev/github/DTLab-LabCN/tmp/docusaurus/my-website/static/img/DTLab-Logo-RGB-V.png"
   inkscape:export-xdpi="96"
   inkscape:export-ydpi="96"
   inkscape:version="1.1.2 (0a00cf5339, 2022-02-04)"
   xmlns:inkscape="http://www.inkscape.org/namespaces/inkscape"
   xmlns:sodipodi="http://sodipodi.sourceforge.net/DTD/sodipodi-0.dtd"
   xmlns="http://www.w3.org/2000/svg"
   xmlns:svg="http://www.w3.org/2000/svg">
  <sodipodi:namedview
     id="namedview143"
     pagecolor="#ffffff"
     bordercolor="#666666"
     borderopacity="1.0"
     inkscape:pageshadow="2"
     inkscape:pageopacity="0.0"
     inkscape:pagecheckerboard="0"
     showgrid="false"
     inkscape:zoom="1.9837173"
     inkscape:cx="-54.947346"
     inkscape:cy="62.508908"
     inkscape:window-width="2560"
     inkscape:window-height="1387"
     inkscape:window-x="0"
     inkscape:window-y="26"
     inkscape:window-maximized="1"
     inkscape:current-layer="a" />
  <defs
     id="defs4">
    <style
       id="style2">.b{fill:#2564bf;}.b,.c{stroke-width:0px;}.c{fill:#323242;}</style>
  </defs>
  <path
     class="c"
     d="m 64.360311,36.473444 c -0.88352,-1.28309 -0.56097,-3.0385 0.72071,-3.92228 1.28189,-0.88521 3.03877,-0.56238 3.92228,0.72071 0.88667,1.28221 0.56412,3.03762 -0.72071,3.92229 -1.28167,0.88377 -3.03855,0.56095 -3.92228,-0.72072"
     id="path6" />
  <path
     class="c"
     d="m 36.446881,55.720654 c -0.88379,-1.28159 -0.56096,-3.03851 0.72071,-3.92228 1.28336,-0.88494 3.03877,-0.56239 3.92375,0.72098 0.8852,1.28193 0.56237,3.03885 -0.72071,3.92228 -1.28342,0.88502 -3.03883,0.56247 -3.92375,-0.72098"
     id="path8" />
  <path
     class="c"
     d="m 60.748371,56.130464 c 1.28189,-0.88521 3.03877,-0.56239 3.92228,0.72071 0.88667,1.2822 0.56384,3.03913 -0.72073,3.92237 -1.28193,0.8852 -3.03881,0.56238 -3.92228,-0.72071 -0.88378,-1.28167 -0.56094,-3.0386 0.72073,-3.92237"
     id="path10" />
  <path
     class="c"
     d="m 41.500521,28.217554 c 1.28336,-0.88493 3.03876,-0.56238 3.92375,0.72099 0.8852,1.28193 0.56237,3.03885 -0.72073,3.92237 -1.2834,0.88493 -3.03881,0.56238 -3.92375,-0.72098 -0.88378,-1.28168 -0.56095,-3.0386 0.72073,-3.92238"
     id="path12" />
  <path
     class="c"
     d="m 66.625671,47.049774 c 0.28153,-1.53213 1.7529,-2.54539 3.28356,-2.26413 1.53218,0.28153 2.54723,1.75167 2.2657,3.2838 -0.28154,1.53222 -1.75291,2.54548 -3.28509,2.26395 -1.53066,-0.28126 -2.54571,-1.7514 -2.26417,-3.28362"
     id="path14" />
  <path
     class="c"
     d="m 33.278121,40.922234 c 0.28152,-1.53213 1.7529,-2.54539 3.28356,-2.26414 1.53217,0.28154 2.54723,1.75167 2.2657,3.2838 -0.28154,1.53222 -1.75291,2.54549 -3.28509,2.26395 -1.53066,-0.28125 -2.54572,-1.75139 -2.26417,-3.28361"
     id="path16" />
  <path
     class="c"
     d="m 50.172231,58.395774 c 1.53213,0.28152 2.5457,1.75148 2.26418,3.28361 -0.28155,1.53222 -1.75145,2.54575 -3.28358,2.26422 -1.53218,-0.28153 -2.54576,-1.7514 -2.26422,-3.28362 0.28153,-1.53213 1.75145,-2.54575 3.28362,-2.26421"
     id="path18" />
  <path
     class="c"
     d="m 56.299791,25.048174 c 1.53213,0.28152 2.5457,1.75148 2.26417,3.28361 -0.28154,1.53222 -1.75145,2.54575 -3.28358,2.26423 -1.53217,-0.28154 -2.54576,-1.7514 -2.26421,-3.28362 0.28152,-1.53213 1.75144,-2.54576 3.28362,-2.26422"
     id="path20" />
  <path
     class="c"
     d="m 58.635621,15.334884 c -0.0365,-0.007 -0.0756,-0.0155 -0.11212,-0.0222 -2.02725,-0.4027 -3.7767,-1.57037 -4.92573,-3.28848 -1.14757,-1.71776 -1.55904,-3.7800297 -1.15785,-5.8075897 0.40414,-2.02703 1.57211,-3.77791 3.28992,-4.92551 1.71809,-1.14893996 3.77162,-1.52132296 5.80883,-1.15609996 4.18417,0.8307 6.91281,4.91162996 6.08211,9.09579996 -0.40414,2.0270297 -1.57038,3.7767397 -3.28844,4.9257797 -1.68844,1.12731 -3.70641,1.54398 -5.69672,1.17826 m 2.24883,-12.2714697 c -1.21846,-0.22389 -2.45409,0.0318 -3.4874,0.72135 -1.0511,0.70445 -1.76674,1.77518 -2.01268,3.01518 -0.2462,1.24142 0.006,2.50506 0.70845,3.5573497 0.70297,1.05087 1.77371,1.76652 3.01517,2.01277 1.25138,0.26612 2.50191,-0.005 3.55593,-0.70876 1.05228,-0.70266 1.76674,-1.7751797 2.01268,-3.0151797 0.50984,-2.56122 -1.15947,-5.05974 -3.72243,-5.56834 -0.0231,-0.006 -0.0449,-0.01 -0.0697,-0.0144"
     id="path22" />
  <path
     class="c"
     d="m 88.100701,59.411324 -0.10945,-0.0201 c -2.02849,-0.40449 -3.7782,-1.57073 -4.9255,-3.29 -1.14899,-1.71802 -1.55904,-3.78003 -1.1578,-5.80759 0.82542,-4.14739 4.84252,-6.86515 8.98955,-6.10314 0.035,0.006 0.0727,0.0148 0.10915,0.0215 4.1827,0.83043 6.91281,4.91163 6.08187,9.09732 -0.82399,4.14766 -4.8423,6.86372 -8.98782,6.10199 m 2.25467,-12.2704 c -2.53902,-0.46654 -4.99894,1.19784 -5.50302,3.73599 -0.24767,1.24115 0.004,2.5048 0.70729,3.55566 0.70413,1.05256 1.77634,1.76848 3.01633,2.01446 2.60304,0.5039 5.06149,-1.16075 5.56837,-3.72242 0.51012,-2.56273 -1.16065,-5.06152 -3.72187,-5.57136 l -0.0671,-0.0123"
     id="path24" />
  <path
     class="c"
     d="m 14.557781,44.802344 c -0.0365,-0.007 -0.0742,-0.0151 -0.11067,-0.0218 -2.02871,-0.40297 -3.7767,-1.57037 -4.9254597,-3.2899 -1.14902,-1.71812 -1.55909,-3.78004 -1.15811,-5.80617 0.40413,-2.02703 1.57037,-3.77675 3.2899097,-4.92551 1.71663,-1.1492 3.77115,-1.55161 5.80737,-1.15637 2.02755,0.40128 3.77674,1.57037 4.92451,3.28678 1.14877,1.71954 1.55883,3.78146 1.15759,5.80902 -0.40266,2.0273 -1.57037,3.77675 -3.28844,4.92578 -1.68701,1.12758 -3.70492,1.54416 -5.6967,1.17818 m 2.24881,-12.27139 c -1.21846,-0.22389 -2.45262,0.032 -3.48621,0.72314 -1.05081,0.70293 -1.76646,1.77366 -2.01266,3.01509 -0.24741,1.23973 0.003,2.50167 0.70751,3.55423 0.70439,1.05113 1.77517,1.76678 3.0149,2.01419 1.23577,0.25267 2.50485,-0.004 3.5574,-0.70849 1.05082,-0.70293 1.76646,-1.77367 2.01126,-3.01544 0.24767,-1.24116 -0.003,-2.50453 -0.7073,-3.55566 -0.70413,-1.05256 -1.77223,-1.76625 -3.01513,-2.01268 -0.0231,-0.006 -0.045,-0.01 -0.0698,-0.0144 m -6.9715297,3.44498 0.0102,0.002 z"
     id="path26" />
  <path
     class="c"
     d="m 82.497301,31.270754 c -0.0365,-0.007 -0.0744,-0.0137 -0.11207,-0.0222 -2.02729,-0.40271 -3.77675,-1.57037 -4.92404,-3.28964 -1.14902,-1.71812 -1.55904,-3.78003 -1.15785,-5.80759 0.40414,-2.02703 1.57185,-3.77648 3.28992,-4.92551 1.68675,-1.12616 3.70466,-1.54274 5.69501,-1.17702 l 0.11235,0.0207 c 2.02729,0.4027 3.77647,1.57188 4.92547,3.2899 2.37134,3.54618 1.41439,8.36029 -2.13034,10.73195 -1.6887,1.12874 -3.70667,1.5454 -5.69845,1.17942 m 2.2503,-12.27121 c -1.21992,-0.22416 -2.45529,0.0301 -3.48713,0.71993 -1.05283,0.7056 -1.76673,1.77509 -2.01294,3.01661 -0.24621,1.24142 0.005,2.50336 0.70871,3.55592 0.70271,1.05229 1.77344,1.76794 3.0149,2.01419 l 0.0686,0.0126 c 1.21841,0.22388 2.45378,-0.0304 3.48735,-0.72136 2.17048,-1.45204 2.75747,-4.40032 1.30397,-6.5711 -0.70266,-1.05229 -1.7734,-1.76793 -3.01486,-2.01419 z"
     id="path28" />
  <path
     class="c"
     d="m 20.163011,72.942704 -0.11235,-0.0206 c -2.02582,-0.40244 -3.77649,-1.5718 -4.92283,-3.28795 -1.15023,-1.7198 -1.56025,-3.78171 -1.15759,-5.80901 0.40271,-2.02729 1.57037,-3.77675 3.28823,-4.92435 1.71658,-1.14921 3.72906,-1.56081 5.80732,-1.15638 2.02902,0.40156 3.77701,1.56895 4.92577,3.28849 2.37134,3.54618 1.41434,8.36028 -2.13038,10.73194 -1.68844,1.12731 -3.70639,1.54389 -5.69817,1.17791 m 2.25149,-12.26943 c -1.21992,-0.22415 -2.4553,0.0301 -3.48882,0.7211 -1.05257,0.70417 -1.76651,1.77366 -2.01273,3.01517 -0.2462,1.24142 0.004,2.5048 0.70756,3.55423 l 0.001,0.002 c 0.70265,1.05229 1.77339,1.76793 3.01485,2.01418 l 0.0686,0.0126 c 1.21841,0.22388 2.45409,-0.0318 3.48735,-0.72137 2.17047,-1.45204 2.75604,-4.40058 1.30422,-6.57252 -0.70292,-1.05087 -1.77391,-1.76509 -3.01511,-2.01277 z"
     id="path30" />
  <path
     class="c"
     d="m 72.166351,83.271314 c -1.98599,-0.36492 -3.82716,-1.5012 -5.03546,-3.30708 -1.14876,-1.71954 -1.56028,-3.78182 -1.1561,-5.80884 0.40091,-2.02605 1.57009,-3.77523 3.28816,-4.92426 1.71807,-1.14903 3.79113,-1.57813 5.80737,-1.15637 2.02752,0.40119 3.77528,1.5701 4.92572,3.28848 1.14757,1.71775 1.55905,3.78002 1.15638,5.80732 -0.40266,2.0273 -1.57184,3.77648 -3.29138,4.92524 -1.73735,1.16353 -3.78316,1.52675 -5.69469,1.17551 m 2.25117,-12.26792 c -1.21841,-0.22388 -2.45405,0.0318 -3.48589,0.72164 l -0.002,0.001 c -1.05082,0.70293 -1.76646,1.77367 -2.01415,3.01491 -0.24451,1.24026 0.006,2.50364 0.71019,3.55619 1.44968,2.16705 4.39796,2.75399 6.56936,1.30516 1.05255,-0.70408 1.76646,-1.77366 2.01441,-3.01633 0.24622,-1.24151 -0.006,-2.50364 -0.70755,-3.55424 -0.7053,-1.05424 -1.77487,-1.7682 -3.0146,-2.01561 z m -4.3202,-0.52535 0.009,0.002 z"
     id="path32" />
  <path
     class="c"
     d="m 30.492621,20.935444 c -1.98595,-0.36491 -3.82891,-1.49995 -5.03572,-3.30565 -1.14877,-1.71954 -1.56026,-3.78172 -1.15759,-5.80902 0.40413,-2.0270197 1.57184,-3.7764697 3.28965,-4.9240797 1.68701,-1.12758 3.70492,-1.54416 5.69674,-1.17817 0.0365,0.007 0.0744,0.0137 0.11209,0.0221 2.02751,0.40128 3.77527,1.57019 4.92426,3.28821 1.14902,1.7181097 1.55909,3.7800297 1.15638,5.8073197 -0.40266,2.0273 -1.57011,3.77532 -3.28844,4.92578 -1.74027,1.16309 -3.78584,1.52478 -5.69737,1.17354 m 2.25095,-12.2664797 c -1.21846,-0.22389 -2.45383,0.0304 -3.4874,0.72136 -1.05257,0.7041697 -1.76793,1.7733897 -2.01268,3.0151697 -0.24767,1.24116 0.004,2.5048 0.70703,3.55709 1.4523,2.16909 4.39937,2.75434 6.57278,1.30284 1.0523,-0.70275 1.7662,-1.77224 2.01242,-3.01375 0.24624,-1.24142 -0.005,-2.50337 -0.70725,-3.55565 -0.70413,-1.0525597 -1.77513,-1.7667797 -3.01632,-2.0144597 z"
     id="path34" />
  <path
     class="b"
     d="m 70.721491,90.811004 h -0.0134 c -1.04738,0 -1.90462,0.85036 -1.91352,1.9022 l -0.15373,24.114466 -28.10497,-20.405546 c -0.44703,-0.3285 -1.01299,-0.44663 -1.55266,-0.31879 L 5.1943013,103.83187 14.931441,81.591684 c 0.42316,-0.96728 -0.0194,-2.09881 -0.98994,-2.52359 -0.96728,-0.41345 -2.09719,0.0299 -2.51712,0.98792 L 0.16290129,105.77776 c -0.29249,0.6667 -0.1861,1.42888 0.27792,1.98959 0.27793,0.33416 0.66509001,0.56637 1.09067001,0.65294 0.26943,0.0566 0.54251,0.0526 0.81032,-0.01 l 36.6470597,-8.3831 30.41778,22.08767 c 0.33376,0.24273 0.72658,0.36652 1.12263,0.36652 0.29492,0 0.59146,-0.0688 0.86695,-0.20713 0.64365,-0.32525 1.04617,-0.97577 1.05022,-1.69668 l 0.17841,-27.839576 c 0.006,-1.05264 -0.84754,-1.91677 -1.90342,-1.92728 z"
     id="path36" />
</svg>
